<svg xmlns="http://www.w3.org/2000/svg" xmlns:xlink="http://www.w3.org/1999/xlink" width="828.32" height="827.296" viewBox="0 0 828.32 827.296">
  <defs>
    <linearGradient id="linear-gradient" x1="0.5" x2="0.5" y2="1" gradientUnits="objectBoundingBox">
      <stop offset="0" stop-color="#fff"/>
      <stop offset="0.468" stop-color="#b5b5b5"/>
      <stop offset="1"/>
    </linearGradient>
    <linearGradient id="linear-gradient-2" x1="0.5" x2="0.5" y2="1" gradientUnits="objectBoundingBox">
      <stop offset="0"/>
      <stop offset="0.522" stop-color="#b9b9b9"/>
      <stop offset="1" stop-color="#fff"/>
    </linearGradient>
    <linearGradient id="linear-gradient-3" x1="0.5" x2="0.5" y2="1" gradientUnits="objectBoundingBox">
      <stop offset="0" stop-color="#fbfcfb"/>
      <stop offset="0.483" stop-color="#acacac"/>
      <stop offset="1"/>
    </linearGradient>
    <linearGradient id="linear-gradient-4" x1="0.5" x2="0.5" y2="1" gradientUnits="objectBoundingBox">
      <stop offset="0"/>
      <stop offset="0.532" stop-color="#b5b5b5"/>
      <stop offset="1" stop-color="#fff"/>
    </linearGradient>
    <linearGradient id="linear-gradient-5" x1="0.5" x2="0.5" y2="1" gradientUnits="objectBoundingBox">
      <stop offset="0" stop-color="#fbfcfb"/>
      <stop offset="0.473" stop-color="#b2b2b2"/>
      <stop offset="1"/>
    </linearGradient>
  </defs>
  <g id="elipsis_group" data-name="elipsis group" transform="translate(-475.198 -1481.645)">
    <path id="Ellipse_124" data-name="Ellipse 124" d="M414.16,2.048a419.254,419.254,0,0,0-42.139,2.125A413.655,413.655,0,0,0,331.1,10.41c-13.277,2.713-26.564,6.126-39.493,10.142-12.785,3.972-25.523,8.628-37.862,13.841A412.973,412.973,0,0,0,34.432,253.436c-5.219,12.323-9.881,25.046-13.857,37.815-4.021,12.913-7.438,26.184-10.155,39.444a412.159,412.159,0,0,0-6.245,40.868,417.284,417.284,0,0,0,0,84.172A412.155,412.155,0,0,0,10.42,496.6c2.717,13.26,6.133,26.531,10.155,39.444,3.976,12.769,8.639,25.491,13.857,37.814A413.156,413.156,0,0,0,253.747,792.9c12.339,5.212,25.077,9.869,37.862,13.841,12.929,4.016,26.217,7.429,39.493,10.142a413.663,413.663,0,0,0,40.919,6.237,418.835,418.835,0,0,0,84.278,0,413.662,413.662,0,0,0,40.919-6.237c13.277-2.714,26.564-6.126,39.493-10.142,12.785-3.972,25.523-8.628,37.862-13.841A412.972,412.972,0,0,0,793.888,573.86c5.219-12.323,9.881-25.046,13.857-37.814,4.021-12.913,7.438-26.184,10.155-39.444a412.193,412.193,0,0,0,6.245-40.868,417.285,417.285,0,0,0,0-84.172,412.2,412.2,0,0,0-6.245-40.868c-2.717-13.26-6.133-26.531-10.155-39.444-3.976-12.769-8.639-25.491-13.857-37.815A413.155,413.155,0,0,0,574.573,34.393c-12.339-5.212-25.077-9.869-37.862-13.841-12.929-4.016-26.217-7.429-39.493-10.142A413.654,413.654,0,0,0,456.3,4.173,419.253,419.253,0,0,0,414.16,2.048m0-2.048C642.894,0,828.32,185.2,828.32,413.648S642.894,827.3,414.16,827.3,0,642.1,0,413.648,185.426,0,414.16,0Z" transform="translate(475.198 1481.645)" fill="url(#linear-gradient)"/>
    <path id="Ellipse_124-2" data-name="Ellipse 124" d="M324.57,2.048a324.421,324.421,0,0,0-65,6.563,320.471,320.471,0,0,0-115.322,48.6,323.348,323.348,0,0,0,54.784,565.518,320.514,320.514,0,0,0,60.538,18.822,325.179,325.179,0,0,0,130,0,320.474,320.474,0,0,0,115.322-48.6A323.348,323.348,0,0,0,450.109,27.432,320.521,320.521,0,0,0,389.571,8.611a324.421,324.421,0,0,0-65-6.563m0-2.048c179.255,0,324.57,145.544,324.57,325.082S503.826,650.165,324.57,650.165,0,504.62,0,325.082,145.315,0,324.57,0Z" transform="translate(565.299 1570.723)" fill="url(#linear-gradient-2)"/>
    <path id="Ellipse_125" data-name="Ellipse 125" d="M246.755,2.048A246.028,246.028,0,0,0,197.437,7.03a243.084,243.084,0,0,0-87.5,36.9,245.485,245.485,0,0,0,41.566,429.293A243.073,243.073,0,0,0,197.437,487.5a246.6,246.6,0,0,0,98.637,0,243.082,243.082,0,0,0,87.5-36.9A245.485,245.485,0,0,0,342,21.317,243.085,243.085,0,0,0,296.074,7.03a246.028,246.028,0,0,0-49.318-4.982m0-2.048C383.035,0,493.511,110.705,493.511,247.267S383.035,494.535,246.755,494.535,0,383.829,0,247.267,110.476,0,246.755,0Z" transform="translate(643.114 1648.538)" fill="url(#linear-gradient-3)"/>
    <path id="Ellipse_126" data-name="Ellipse 126" d="M159.725,2.048a159.352,159.352,0,0,0-31.781,3.193,157.147,157.147,0,0,0,0,307.945,159.744,159.744,0,0,0,63.562,0,157.147,157.147,0,0,0,0-307.945,159.352,159.352,0,0,0-31.781-3.193m0-2.048c88.214,0,159.725,71.282,159.725,159.214S247.939,318.427,159.725,318.427,0,247.145,0,159.214,71.512,0,159.725,0Z" transform="translate(730.145 1736.591)" fill="url(#linear-gradient-4)"/>
    <path id="Ellipse_127" data-name="Ellipse 127" d="M87.03,2.048A85.126,85.126,0,0,0,69.9,3.784a84.236,84.236,0,0,0-30.382,12.86A85.488,85.488,0,0,0,3.775,70.307a86.857,86.857,0,0,0,0,34.469A85.422,85.422,0,0,0,53.956,166.32,84.168,84.168,0,0,0,69.9,171.3a85.327,85.327,0,0,0,34.253,0,84.237,84.237,0,0,0,30.382-12.86,85.488,85.488,0,0,0,35.747-53.663,86.856,86.856,0,0,0,0-34.469A85.422,85.422,0,0,0,120.1,8.764a84.167,84.167,0,0,0-15.948-4.98A85.126,85.126,0,0,0,87.03,2.048M87.03,0c48.065,0,87.03,39.194,87.03,87.542S135.1,175.084,87.03,175.084,0,135.89,0,87.542,38.965,0,87.03,0Z" transform="translate(802.84 1808.263)" fill="url(#linear-gradient-5)"/>
  </g>
</svg>
