<svg xmlns="http://www.w3.org/2000/svg" width="83" height="71" viewBox="0 0 83 71">
  <g id="Groupe_1882" data-name="Groupe 1882" transform="translate(-919 -771)">
    <g id="Polygone_2" data-name="Polygone 2" transform="translate(987 825) rotate(180)" fill="none">
      <path d="M13.447,22.165a15.148,15.148,0,0,1,26.106,0h0A15.148,15.148,0,0,1,26.5,45h0A15.148,15.148,0,0,1,13.447,22.165Z" stroke="none"/>
      <path d="M 26.5 14.95392608642578 C 21.16749954223633 14.95392608642578 16.36845016479492 17.69717788696289 13.66254043579102 22.2921257019043 C 12.27000045776367 24.65682601928711 11.54981994628906 27.31889533996582 11.57987976074219 29.99053573608398 C 11.60826110839844 32.51331329345703 12.29504013061523 35.02199554443359 13.56597900390625 37.24536514282227 C 14.83691024780273 39.46873474121094 16.65010833740234 41.33352661132812 18.8095588684082 42.63813781738281 C 21.09642028808594 44.01972579956055 23.75572967529297 44.74999618530273 26.5 44.74999618530273 C 29.24427032470703 44.74999618530273 31.90357971191406 44.01972579956055 34.19043731689453 42.63813781738281 C 36.34989166259766 41.33352661132812 38.16308975219727 39.46873474121094 39.43402099609375 37.24536514282227 C 40.70494842529297 35.02199554443359 41.39173889160156 32.51331329345703 41.42012023925781 29.99052619934082 C 41.45018005371094 27.31889533996582 40.72999954223633 24.65682601928711 39.33745956420898 22.2921257019043 C 36.63153839111328 17.69717788696289 31.83249092102051 14.95392608642578 26.5 14.95392608642578 M 26.49999618530273 14.70392990112305 C 31.56180191040039 14.70392990112305 36.62361145019531 17.1910400390625 39.55287933349609 22.16526794433594 C 45.49954986572266 32.26339721679688 38.21900177001953 44.99999618530273 26.5 44.99999618530273 C 14.78099060058594 44.99999618530273 7.500450134277344 32.26339721679688 13.44712066650391 22.16526794433594 C 16.37638473510742 17.1910400390625 21.43819046020508 14.70392990112305 26.49999618530273 14.70392990112305 Z" stroke="none" fill="#fff"/>
    </g>
    <g id="Polygone_3" data-name="Polygone 3" transform="translate(1002 842) rotate(180)" fill="none">
      <path d="M20.942,35.171a23.812,23.812,0,0,1,41.116,0h0A23.812,23.812,0,0,1,41.5,71h0A23.812,23.812,0,0,1,20.942,35.172Z" stroke="none"/>
      <path d="M 41.5 23.62555694580078 C 37.48793029785156 23.62555694580078 33.53639984130859 24.63455963134766 30.07260131835938 26.54348754882812 C 28.27616119384766 27.53351593017578 26.61833953857422 28.76043701171875 25.14519119262695 30.19016647338867 C 23.60871887207031 31.68134689331055 22.26718139648438 33.39974594116211 21.15784072875977 35.29765701293945 C 20.0384407043457 37.21277618408203 19.19437026977539 39.24297714233398 18.64907073974609 41.33185577392578 C 18.12653350830078 43.33358764648438 17.87584686279297 45.39651489257812 17.90397644042969 47.46333694458008 C 17.95822143554688 51.44728469848633 19.05060958862305 55.40695571899414 21.06306076049805 58.91425704956055 C 23.07550811767578 62.42155456542969 25.94279098510742 65.36280822753906 29.35491943359375 67.4200439453125 C 31.12509155273438 68.48731994628906 33.03260040283203 69.31189727783203 35.02444839477539 69.87088775634766 C 37.10303115844727 70.4542236328125 39.28173065185547 70.75 41.5000114440918 70.75 C 43.71828842163086 70.75 45.89698028564453 70.4542236328125 47.97555923461914 69.87089538574219 C 49.96741104125977 69.31189727783203 51.87491989135742 68.48731994628906 53.64508819580078 67.4200439453125 C 57.05721282958984 65.36281585693359 59.92448043823242 62.42155456542969 61.93692779541016 58.91425704956055 C 63.94937896728516 55.40695571899414 65.04177093505859 51.44729614257812 65.09600830078125 47.46333694458008 C 65.1241455078125 45.39651489257812 64.87345886230469 43.33358764648438 64.35092163085938 41.33185577392578 C 63.80562973022461 39.24297714233398 62.9615478515625 37.21277618408203 61.84214782714844 35.29764556884766 C 60.73281097412109 33.39974594116211 59.39126968383789 31.68133544921875 57.85481262207031 30.19016647338867 C 56.38165283203125 28.76043701171875 54.72383117675781 27.53351593017578 52.92739105224609 26.54348754882812 C 49.46358871459961 24.63455963134766 45.51205825805664 23.62555694580078 41.5 23.62555694580078 M 41.5 23.37555694580078 C 49.4807243347168 23.37555694580078 57.46144485473633 27.30753326416016 62.05797958374023 35.17148590087891 L 62.05799102783203 35.1714973449707 C 71.33673095703125 51.04597473144531 59.8873405456543 71 41.5000114440918 71 L 41.4999885559082 71 C 23.1126594543457 71 11.66326904296875 51.04597473144531 20.94200897216797 35.1714973449707 L 20.94202041625977 35.17148590087891 C 25.53855514526367 27.30753326416016 33.5192756652832 23.37555694580078 41.5 23.37555694580078 Z" stroke="none" fill="#fff"/>
    </g>
  </g>
</svg>
