<svg xmlns="http://www.w3.org/2000/svg" width="47.696" height="47.624" viewBox="0 0 47.696 47.624">
  <path id="Polygone_3" data-name="Polygone 3" d="M41.5,23.626a23.728,23.728,0,0,0-11.427,2.918,23.054,23.054,0,0,0-4.927,3.647,24.278,24.278,0,0,0-6.5,11.142,23.038,23.038,0,0,0-.745,6.131A23.844,23.844,0,0,0,29.355,67.42a23.037,23.037,0,0,0,5.67,2.451,24.289,24.289,0,0,0,12.951,0,23.037,23.037,0,0,0,5.67-2.451A23.844,23.844,0,0,0,65.1,47.463a23.037,23.037,0,0,0-.745-6.131,24.278,24.278,0,0,0-6.5-11.142,23.054,23.054,0,0,0-4.927-3.647A23.728,23.728,0,0,0,41.5,23.626m0-.25a23.594,23.594,0,0,1,20.558,11.8h0A23.812,23.812,0,0,1,41.5,71h0A23.812,23.812,0,0,1,20.942,35.171h0A23.594,23.594,0,0,1,41.5,23.376Z" transform="translate(65.348 71) rotate(180)" fill="#fff"/>
</svg>
