<svg xmlns="http://www.w3.org/2000/svg" width="785.693" height="823.191" viewBox="0 0 785.693 823.191">
  <g id="Groupe_1932" data-name="Groupe 1932" transform="translate(-13.759 10.013)">
    <path id="Ellipse_1712" data-name="Ellipse 1712" d="M347-2.5A347.877,347.877,0,0,1,537.47,53.913a2.5,2.5,0,1,1-2.728,4.19A342.877,342.877,0,0,0,347,2.5,2.5,2.5,0,0,1,344.5,0,2.5,2.5,0,0,1,347-2.5ZM76.793,562.23a2.5,2.5,0,0,1,1.947.93,345.054,345.054,0,0,0,161.1,111.348,2.5,2.5,0,0,1-1.554,4.752A350.055,350.055,0,0,1,74.849,566.3a2.5,2.5,0,0,1,1.944-4.07Z" transform="translate(373.485 -53.784) rotate(38)" fill="#c9961b"/>
    <circle id="Ellipse_1715" data-name="Ellipse 1715" cx="30" cy="30" r="30" transform="translate(675.755 226.893) rotate(-35)" fill="#c1983a" opacity="0.099"/>
    <circle id="Ellipse_1714" data-name="Ellipse 1714" cx="21" cy="21" r="21" transform="translate(688.289 229.103) rotate(-35)" fill="#c1983a" opacity="0.098"/>
    <circle id="Ellipse_1713" data-name="Ellipse 1713" cx="12" cy="12" r="12" transform="translate(700.824 231.313) rotate(-35)" fill="#c9961b"/>
  </g>
</svg>
