<svg xmlns="http://www.w3.org/2000/svg" xmlns:xlink="http://www.w3.org/1999/xlink" viewBox="0 0 20.26 20.26" width="17" height="17">
  <defs>
    <clipPath id="clip-path">
      <rect id="Rectangle_1532" data-name="Rectangle 1532" width="20" height="20" fill="#fff"/>
    </clipPath>
  </defs>
  <g id="Groupe_1826" data-name="Groupe 1826" transform="translate(0.262) rotate(0.75)" clip-path="url(#clip-path)">
    <path id="Tracé_2182" data-name="Tracé 2182" d="M17.3,0,2.445.188A2.479,2.479,0,0,0,0,2.7L.189,17.555A2.48,2.48,0,0,0,2.7,20l14.858-.189A2.479,2.479,0,0,0,20,17.3L19.812,2.445A2.48,2.48,0,0,0,17.3,0m1.045,17.324a.827.827,0,0,1-.815.836l-14.859.188a.826.826,0,0,1-.835-.816L1.652,2.675a.826.826,0,0,1,.815-.836l14.858-.188a.826.826,0,0,1,.836.815Z" transform="translate(0 0)" fill="#fff"/>
    <path id="Tracé_2183" data-name="Tracé 2183" d="M11,6.114A4.953,4.953,0,1,0,16.019,11,4.958,4.958,0,0,0,11,6.114m.1,8.254a3.3,3.3,0,1,1,3.26-3.343,3.306,3.306,0,0,1-3.26,3.343" transform="translate(-1.067 -1.066)" fill="#fff"/>
    <path id="Tracé_2184" data-name="Tracé 2184" d="M18.593,4.278a.826.826,0,1,0,.836.815.825.825,0,0,0-.836-.815" transform="translate(-3.102 -0.746)" fill="#fff"/>
  </g>
</svg>
